<?xml version="1.0" encoding="UTF-8" standalone="no"?>
<svg
   width="300"
   height="300"
   viewBox="0 0 79.374998 79.375002"
   version="1.1"
   id="svg8"
   sodipodi:docname="logo.svg"
   inkscape:version="1.2.2 (732a01da63, 2022-12-09, custom)"
   inkscape:export-filename="../637a7028/logo.png"
   inkscape:export-xdpi="96"
   inkscape:export-ydpi="96"
   xmlns:inkscape="http://www.inkscape.org/namespaces/inkscape"
   xmlns:sodipodi="http://sodipodi.sourceforge.net/DTD/sodipodi-0.dtd"
   xmlns="http://www.w3.org/2000/svg"
   xmlns:svg="http://www.w3.org/2000/svg"
   xmlns:rdf="http://www.w3.org/1999/02/22-rdf-syntax-ns#"
   xmlns:cc="http://creativecommons.org/ns#"
   xmlns:dc="http://purl.org/dc/elements/1.1/">
  <sodipodi:namedview
     pagecolor="#ffffff"
     bordercolor="#666666"
     borderopacity="1"
     objecttolerance="10"
     gridtolerance="10"
     guidetolerance="10"
     inkscape:pageopacity="0"
     inkscape:pageshadow="2"
     inkscape:window-width="1920"
     inkscape:window-height="1011"
     id="namedview9"
     showgrid="false"
     inkscape:zoom="1.4483333"
     inkscape:cx="247.5259"
     inkscape:cy="183.65938"
     inkscape:window-x="0"
     inkscape:window-y="0"
     inkscape:window-maximized="1"
     inkscape:current-layer="svg8"
     inkscape:showpageshadow="2"
     inkscape:pagecheckerboard="0"
     inkscape:deskcolor="#d1d1d1" />
  <defs
     id="defs2" />
  <metadata
     id="metadata5">
    <rdf:RDF>
      <cc:Work
         rdf:about="">
        <dc:format>image/svg+xml</dc:format>
        <dc:type
           rdf:resource="http://purl.org/dc/dcmitype/StillImage" />
        <dc:title />
      </cc:Work>
    </rdf:RDF>
  </metadata>
  <g
     inkscape:groupmode="layer"
     id="layer2"
     inkscape:label="background">
    <path
       id="path1894"
       style="fill:#f9f9f9;fill-opacity:1;stroke:none;stroke-width:1.85208;stroke-dasharray:none;stroke-opacity:1"
       d="M 39.688534 3.1967041 L 8.0858114 21.443136 L 8.0858114 57.931864 L 39.688534 76.178296 L 71.289189 57.931864 L 71.289189 21.443136 L 39.688534 3.1967041 z " />
  </g>
  <g
     inkscape:groupmode="layer"
     id="layer1"
     inkscape:label="wiggly"
     style="display:inline">
    <path
       style="color:#000000;fill:#97d24e;fill-opacity:1;-inkscape-stroke:none"
       d="m 20.765625,20.519531 c -1.088019,0.0013 -2.133055,0.229925 -3.101563,0.648438 -1.937014,0.837026 -3.571879,2.384996 -4.896484,4.294922 l -0.0078,0.01172 -0.0059,0.01172 c -0.886054,1.363544 -1.336842,2.866485 -1.146484,4.273438 0.190358,1.406952 1.150388,2.688439 2.705078,3.216796 3.031309,1.030188 6.446998,-0.505205 9.476562,-2.849609 1.556075,-1.204156 2.882287,-2.670048 3.253907,-4.373047 0.18581,-0.851499 0.08039,-1.792157 -0.421875,-2.59375 -0.50224,-0.801595 -1.342209,-1.437961 -2.496066,-1.92969 -1.14039,-0.485991 -2.271356,-0.712199 -3.359375,-0.710938 z m 0.002,1.837891 c 0.827422,-9.57e-4 1.698247,0.178728 2.630859,0.576172 0.919145,0.391704 1.412269,0.82779 1.652344,1.210937 0.240075,0.383147 0.287059,0.738749 0.183594,1.212891 -0.20693,0.948284 -1.223434,2.256371 -2.578125,3.304687 -2.791968,2.160542 -5.704249,3.25513 -7.748047,2.560547 -0.982864,-0.334024 -1.353439,-0.889493 -1.464844,-1.71289 -0.11099,-0.820338 0.166756,-1.935922 0.857422,-3.003907 1.181435,-1.699649 2.585769,-2.985352 4.097656,-3.638672 0.75791,-0.327508 1.541719,-0.508808 2.369141,-0.509765 z"
       id="path1358" />
    <path
       id="path1595"
       style="color:#000000;fill:#97d24e;fill-opacity:1;-inkscape-stroke:none"
       d="m 22.503536,14.737085 c -0.514896,-0.0061 -1.042734,0.0035 -1.583366,0.03049 -0.481138,0.02401 -0.973861,0.06398 -1.473812,0.116272 l -5.139738,2.967778 c 7.152307,-2.148191 13.084273,-1.073759 15.759762,0.460953 1.662083,0.953403 2.333789,2.57181 2.007629,4.840015 -0.326159,2.268204 -1.781281,5.104191 -4.501534,7.900293 -3.066411,3.151911 -7.856939,5.10517 -13.443624,5.724715 -2.698316,0.299236 -3.851867,-0.254975 -4.7087562,-1.018026 -0.4955631,-0.441294 -0.881003,-1.022696 -1.3342854,-1.62264 v 2.907833 c 0.035039,0.03243 0.065638,0.06547 0.1018025,0.09767 1.2112044,1.078565 3.1048931,1.814207 6.1463951,1.476912 5.892956,-0.65351 11.098626,-2.710964 14.566553,-6.275586 2.922872,-3.004372 4.602402,-6.121614 5.005896,-8.92762 0.403493,-2.806007 -0.601234,-5.382181 -2.918169,-6.711218 -1.932207,-1.108351 -4.88048,-1.925397 -8.484753,-1.967839 z" />
    <path
       id="path1562"
       style="color:#000000;fill:#97d24e;fill-opacity:1;-inkscape-stroke:none"
       d="m 55.615727,15.268835 c -2.353497,-10e-4 -4.382952,0.193172 -6.148979,0.561207 -4.036632,0.841221 -6.700767,2.644123 -8.460982,4.996077 -3.325862,4.443931 -7.49567,11.430041 -12.523267,15.43575 -2.447483,1.950015 -6.211311,3.489505 -10.164237,4.247803 -3.532252,0.677599 -7.214134,0.730117 -10.2324506,0.02584 v 1.898076 c 3.2626066,0.688725 6.9927086,0.584849 10.5802326,-0.103353 4.189486,-0.803678 8.180228,-2.397971 10.970907,-4.621424 5.448721,-4.341237 9.645719,-11.489833 12.851412,-15.773197 1.505562,-2.011693 3.665068,-3.524178 7.355623,-4.293278 3.550415,-0.739895 8.5185,-0.739028 15.456421,0.342615 l -4.17804,-2.412256 c -1.605418,-0.16312 -3.095153,-0.259118 -4.477763,-0.291455 -0.349612,-0.0082 -0.692663,-0.01226 -1.028877,-0.0124 z" />
    <path
       id="path1565"
       style="color:#000000;fill:#97d24e;fill-opacity:1;-inkscape-stroke:none"
       d="m 29.906702,8.8444214 -2.092896,1.2081946 c 1.700949,0.375685 2.747017,1.238798 3.719153,2.238623 1.269437,1.305594 2.314904,2.990913 4.314465,3.616834 2.029864,0.635406 3.994473,-0.285918 5.611544,-1.261422 0.808536,-0.487751 1.550632,-1.011059 2.185396,-1.42782 0.634765,-0.41676 1.189505,-0.717258 1.435572,-0.785481 1.056618,-0.292954 1.949057,-0.74212 3.762044,-0.89607 1.384248,-0.117542 3.308426,-0.05118 6.101953,0.467672 L 50.874931,9.6557414 c -0.821246,-0.031648 -1.552337,-0.018451 -2.189531,0.035657 -2.073709,0.1760887 -3.293976,0.7337136 -4.099491,0.9570476 -0.684998,0.189919 -1.284853,0.580347 -1.956986,1.021643 -0.672133,0.441295 -1.391537,0.946941 -2.127002,1.390612 -1.470933,0.887343 -2.927371,1.447593 -4.101559,1.080038 -1.204489,-0.37704 -2.118066,-1.679693 -3.538802,-3.140894 -0.769403,-0.791318 -1.720389,-1.5832106 -2.954858,-2.1554236 z" />
    <path
       id="path1559"
       style="color:#000000;fill:#97d24e;fill-opacity:1;-inkscape-stroke:none"
       d="m 57.613538,20.611145 c -1.774082,0.01654 -3.512879,0.208891 -5.156275,0.635103 -2.599619,0.674208 -4.505843,1.594342 -5.679756,3.235979 -1.173914,1.641635 -1.49674,3.820861 -1.33997,6.763928 0.173096,3.249578 2.439183,6.847228 6.980452,9.552905 4.207856,2.507032 10.392541,4.259951 18.8712,4.300513 v -1.852084 c -8.220257,-0.04166 -14.075053,-1.748635 -17.921904,-4.04058 -4.153109,-2.474412 -5.94971,-5.607786 -6.080249,-8.058423 -0.146866,-2.757148 0.184632,-4.454747 0.996322,-5.589839 0.81169,-1.135092 2.221231,-1.892833 4.638476,-2.519743 5.51943,-1.431456 12.865895,0.13777 18.367355,2.037602 V 23.119002 C 67.228148,21.75428 62.299593,20.567448 57.613538,20.611145 Z" />
    <path
       id="path1608"
       style="color:#000000;fill:#97d24e;fill-opacity:1;-inkscape-stroke:none"
       d="m 60.87122,25.923999 c -0.724368,-0.0057 -1.418186,0.09115 -2.068608,0.337964 -1.300841,0.493618 -2.299561,1.682927 -2.650484,3.384289 -0.341433,1.655351 -0.11741,3.165524 0.635103,4.383195 0.752514,1.217672 1.969563,2.111681 3.472657,2.788977 2.759553,1.243461 6.569629,1.821109 11.029301,2.13372 V 37.09541 C 66.975004,36.779457 63.35951,36.18259 61.021598,35.129122 59.735285,34.549506 58.856601,33.852958 58.363363,33.05483 c -0.493238,-0.798127 -0.665051,-1.730718 -0.396359,-3.033407 0.259202,-1.256675 0.738384,-1.741336 1.491899,-2.027266 0.753516,-0.285931 1.908489,-0.272456 3.273702,0.0217 2.569489,0.553649 5.772774,2.017404 8.556584,3.140377 v -2.000912 c -2.556616,-1.059987 -5.506784,-2.377243 -8.16591,-2.950207 -0.771794,-0.166299 -1.527692,-0.275375 -2.252059,-0.28112 z" />
    <path
       id="path1568"
       style="color:#000000;fill:#97d24e;fill-opacity:1;-inkscape-stroke:none"
       d="M 42.54624,4.8467326 C 41.455069,5.2931551 40.102795,5.6482529 38.759908,5.8182495 37.478955,5.9804058 36.19651,5.9632202 35.165295,5.808431 l -2.247408,1.2970784 c 1.635273,0.7823912 3.848406,0.8326157 6.074048,0.5508708 2.003026,-0.2535636 3.992785,-0.7983915 5.503023,-1.6841349 z" />
  </g>
  <g
     id="g1301"
     style="display:inline">
    <path
       id="path1226"
       style="fill:#e6e6e6;fill-opacity:1;stroke:none;stroke-width:2.64583;stroke-dasharray:none"
       d="M 41.070878,32.019751 V 50.69303 l 7.712191,-7.712191 1.956986,1.95647 -9.096085,9.096085 -1.95647,1.95647 1.494999,1.494999 h 11.812716 v 2.767273 H 26.379268 L 41.347347,75.220215 68.559123,59.507996 Z"
       inkscape:label="shadow" />
    <path
       style="color:#000000;fill:#4d4d4d;stroke-width:1.0274;-inkscape-stroke:none"
       d="M 74.056377,19.843751 39.688503,1.9999997e-7 5.3186227,19.843751 v 39.6875 L 6.0109174,59.930573 39.688503,79.375 74.056377,59.531251 Z M 71.289209,21.44305 V 57.931951 L 39.688503,76.178409 8.085792,57.931951 V 21.44305 L 39.688503,3.1965916 Z"
       id="path990"
       inkscape:label="hexagon" />
    <path
       id="path1043"
       style="color:#000000;fill:#4d4d4d;stroke-width:1.0274;-inkscape-stroke:none"
       d="M 52.995473,57.484847 H 26.379526 v 2.767273 h 26.615947 z"
       inkscape:label="arrow base" />
    <path
       id="path1097"
       style="color:#000000;fill:#4d4d4d;stroke-width:1.0274;-inkscape-stroke:none"
       d="m 38.303605,32.019751 v 18.672762 l -7.712191,-7.711674 -1.956469,1.95647 9.096085,9.095569 -5.16e-4,5.16e-4 1.956986,1.95647 1.95647,-1.95647 9.096085,-9.096085 -1.956986,-1.95647 -7.712191,7.712191 V 32.019751 Z"
       inkscape:label="arrow" />
  </g>
</svg>
